<svg width="59" height="56" xmlns="http://www.w3.org/2000/svg">
 <!-- Created with Method Draw - http://github.com/duopixel/Method-Draw/ -->

 <g>
  <title>background</title>
  <rect fill="none" id="canvas_background" height="58" width="61" y="-1" x="-1"/>
  <g display="none" overflow="visible" y="0" x="0" height="100%" width="100%" id="canvasGrid">
   <rect fill="url(#gridpattern)" stroke-width="0" y="1" x="1" height="400" width="580"/>
  </g>
 </g>
 <g>
  <title>Layer 1</title>
  <text stroke="#000" transform="rotate(-0.25963902473449707 291.0066833496146,169.17907714844478) matrix(1.0553712844848633,0,0,1.7407407760620117,-6.478440284729004,-116.608801856637) " font-weight="bold" xml:space="preserve" text-anchor="start" font-family="'Trebuchet MS', Gadget, sans-serif" font-size="24" id="svg_1" y="172.528258" x="232.592232" stroke-width="0" fill="#000000">webizian</text>
  <path id="svg_4" d="m-174,15.421875c60,32 -3,54 -3,53.578125" opacity="0.5" stroke-width="1.5" stroke="#000" fill="#fff"/>
  <path stroke="#222222" id="svg_14" d="m7.539661,41.516132l43.814531,0.015906l-1.421792,1.998007l-40.954161,-0.047715l-1.43858,-1.966197l0.000002,0zm0.301098,-26.578022l43.22906,-0.047715l1.254556,2.04965l-45.754919,0.015906l1.271303,-2.01784zm-4.26618,13.317888l51.727944,-0.047715l-0.066864,2.049652l-51.627625,-0.031809l-0.033455,-1.970127zm51.770764,0.190104c0,13.569174 -11.611766,24.607834 -25.8869,24.607834c-14.268967,0 -25.878569,-11.040656 -25.878569,-24.607834c0,-13.567244 11.6117,-24.605903 25.878569,-24.605903c14.275137,-0.001993 25.8869,11.038659 25.8869,24.605903zm-25.884868,-26.578024c-15.407996,0 -27.946399,11.921785 -27.946399,26.576025c0,14.656237 12.538405,26.57802 27.946399,26.57802c15.416385,0 27.952695,-11.921783 27.952695,-26.57802c0,-14.65424 -12.536308,-26.576025 -27.952695,-26.576025zm7.842544,26.578024c0,14.499791 -4.131596,24.607834 -7.842544,24.607834c-3.70675,0 -7.838279,-10.108043 -7.838279,-24.607834c0,-14.503783 4.129494,-24.605903 7.838279,-24.605903c3.708853,-0.001993 7.842544,10.10212 7.842544,24.605903zm-7.842544,-26.578024c-6.436784,0 -9.910306,13.693895 -9.910306,26.576025c0,12.886063 3.473522,26.57802 9.910306,26.57802c6.43685,0 9.916666,-13.693949 9.916666,-26.57802c-0.002098,-12.88213 -3.479817,-26.576025 -9.916666,-26.576025zm18.3672,26.578024c0,13.569174 -8.242341,24.607834 -18.3672,24.607834c-10.122755,0 -18.360903,-11.040656 -18.360903,-24.607834c0,-13.567244 8.238148,-24.605903 18.360903,-24.605903c10.124859,-0.001993 18.3672,11.038659 18.3672,24.605903zm-18.3672,-26.578024c-11.263947,0 -20.432928,11.921785 -20.432928,26.576025c0,14.656237 9.16898,26.57802 20.432928,26.57802c11.268144,0 20.43509,-11.921783 20.43509,-26.57802c0,-14.65424 -9.166946,-26.576025 -20.43509,-26.576025z" stroke-opacity="null" stroke-width="1.5" fill="#494949"/>
  <text stroke="#222222" transform="matrix(1,0,0,0.4351932406425476,0,21.047876891680062) " xml:space="preserve" text-anchor="start" font-family="Helvetica, Arial, sans-serif" font-size="17" id="svg_15" y="28.853925" x="12.780182" stroke-opacity="null" stroke-width="0" fill="#e54242"/>
  <text font-weight="bold" stroke="#fc3737" transform="matrix(1.014751726459894,0,0,0.8792676329612732,-12.200344096416895,3.8426848696544766) " xml:space="preserve" text-anchor="start" font-family="Helvetica, Arial, sans-serif" font-size="13" id="svg_16" y="32.225442" x="13.800147" stroke-width="0" fill="#ff5151">webizian</text>
  <path stroke="#f23a3a" id="svg_19" d="m30.518796,19.732097c-0.119282,-1.173657 -0.265216,-2.123855 -0.411597,-2.788555c-0.170804,0.681321 -0.378834,1.096196 -0.605628,1.096196c-0.227239,0 -0.435568,-0.415683 -0.606071,-1.096196c-0.146381,0.6647 -0.292464,1.614898 -0.412039,2.788555c-0.277575,2.724895 -0.308102,5.519942 -0.068355,6.24466c0.107369,0.326463 0.219944,0.083136 0.336246,-0.527224c-0.020401,0.618867 -0.032315,1.289638 -0.032315,1.991246c0,3.117065 0.222328,5.642017 0.496324,5.642017c0.165146,0 0.246898,-0.919392 0.286209,-2.327051c0.039166,1.407659 0.120918,2.327051 0.285465,2.327051c0.274446,0 0.496776,-2.524952 0.496776,-5.642017c0,-0.701609 -0.011918,-1.372379 -0.032762,-1.991246c0.116598,0.61036 0.229024,0.853686 0.336691,0.527224c0.2396,-0.724718 0.208622,-3.519766 -0.068945,-6.24466l0,0zm-1.017518,-2.755708c0.461029,0 0.834948,-2.036665 0.834948,-4.549044s-0.373919,-4.549049 -0.834948,-4.549049c-0.461186,0 -0.835401,2.03707 -0.835401,4.549049s0.374214,4.549044 0.835401,4.549044z" stroke-width="1.5" fill="#f9f9f9"/>
 </g>
</svg>